<svg xmlns="http://www.w3.org/2000/svg" xmlns:xlink="http://www.w3.org/1999/xlink" width="1235" zoomAndPan="magnify" viewBox="0 0 926.25 253.499997" height="338" preserveAspectRatio="xMidYMid meet" version="1.0"><path fill="#ff0000" d="M 291.257812 56.558594 C 287.902344 44.105469 278.082031 34.285156 265.628906 30.929688 C 242.875 24.703125 151.859375 24.703125 151.859375 24.703125 C 151.859375 24.703125 60.84375 24.703125 38.09375 30.691406 C 25.875 34.042969 15.816406 44.105469 12.464844 56.558594 C 6.476562 79.3125 6.476562 126.496094 6.476562 126.496094 C 6.476562 126.496094 6.476562 173.917969 12.464844 196.433594 C 15.816406 208.886719 25.636719 218.707031 38.09375 222.0625 C 61.085938 228.289062 151.859375 228.289062 151.859375 228.289062 C 151.859375 228.289062 242.875 228.289062 265.628906 222.300781 C 278.082031 218.949219 287.902344 209.128906 291.257812 196.671875 C 297.246094 173.917969 297.246094 126.734375 297.246094 126.734375 C 297.246094 126.734375 297.484375 79.3125 291.257812 56.558594 Z M 291.257812 56.558594 " fill-opacity="1" fill-rule="nonzero"/><path fill="#ffffff" d="M 122.878906 82.90625 L 122.878906 170.085938 L 198.566406 126.496094 Z M 122.878906 82.90625 " fill-opacity="1" fill-rule="nonzero"/><path fill="#ffffff" d="M 428.738281 210.085938 C 422.988281 206.253906 418.917969 200.265625 416.519531 191.882812 C 414.125 183.738281 412.929688 172.722656 412.929688 159.308594 L 412.929688 140.867188 C 412.929688 127.214844 414.367188 116.195312 417 107.8125 C 419.875 99.429688 424.1875 93.441406 429.933594 89.609375 C 435.921875 85.777344 443.585938 83.863281 453.167969 83.863281 C 462.507812 83.863281 470.171875 85.777344 475.921875 89.609375 C 481.667969 93.441406 485.742188 99.671875 488.375 107.8125 C 491.011719 115.957031 492.445312 126.976562 492.445312 140.867188 L 492.445312 159.308594 C 492.445312 172.960938 491.25 183.738281 488.613281 192.121094 C 485.980469 200.265625 481.910156 206.492188 476.160156 210.324219 C 470.410156 214.15625 462.507812 216.074219 452.6875 216.074219 C 442.628906 215.832031 434.484375 213.917969 428.738281 210.085938 Z M 461.070312 189.964844 C 462.746094 185.894531 463.464844 178.949219 463.464844 169.609375 L 463.464844 129.847656 C 463.464844 120.746094 462.746094 114.042969 461.070312 109.730469 C 459.394531 105.417969 456.757812 103.503906 452.6875 103.503906 C 448.855469 103.503906 445.980469 105.660156 444.542969 109.730469 C 442.867188 114.042969 442.148438 120.746094 442.148438 129.847656 L 442.148438 169.609375 C 442.148438 178.949219 442.867188 185.894531 444.542969 189.964844 C 445.980469 194.039062 448.855469 196.195312 452.925781 196.195312 C 456.757812 196.195312 459.394531 194.277344 461.070312 189.964844 Z M 461.070312 189.964844 " fill-opacity="1" fill-rule="nonzero"/><path fill="#ffffff" d="M 870.875 159.546875 L 870.875 166.015625 C 870.875 174.160156 871.117188 180.386719 871.59375 184.457031 C 872.074219 188.53125 873.03125 191.644531 874.707031 193.320312 C 876.144531 195.234375 878.539062 196.195312 881.894531 196.195312 C 886.207031 196.195312 889.078125 194.515625 890.757812 191.164062 C 892.433594 187.8125 893.152344 182.300781 893.390625 174.398438 L 918.058594 175.835938 C 918.300781 177.03125 918.300781 178.46875 918.300781 180.386719 C 918.300781 192.121094 915.1875 200.984375 908.71875 206.734375 C 902.253906 212.480469 893.152344 215.355469 881.414062 215.355469 C 867.285156 215.355469 857.464844 210.804688 851.714844 201.941406 C 845.96875 193.082031 843.09375 179.429688 843.09375 160.746094 L 843.09375 138.472656 C 843.09375 119.308594 845.96875 105.417969 851.953125 96.558594 C 857.941406 87.695312 868.003906 83.382812 882.132812 83.382812 C 891.953125 83.382812 899.617188 85.300781 904.886719 88.890625 C 910.15625 92.484375 913.75 98.234375 915.90625 105.660156 C 918.058594 113.324219 919.019531 123.859375 919.019531 137.273438 L 919.019531 159.070312 L 870.875 159.070312 Z M 874.46875 105.898438 C 873.03125 107.8125 872.074219 110.6875 871.59375 114.757812 C 871.117188 118.832031 870.875 125.058594 870.875 133.441406 L 870.875 142.542969 L 891.953125 142.542969 L 891.953125 133.441406 C 891.953125 125.296875 891.714844 119.070312 891.234375 114.757812 C 890.757812 110.449219 889.558594 107.574219 888.121094 105.898438 C 886.683594 104.222656 884.289062 103.261719 881.414062 103.261719 C 878.0625 103.023438 875.90625 103.980469 874.46875 105.898438 Z M 874.46875 105.898438 " fill-opacity="1" fill-rule="nonzero"/><path fill="#ffffff" d="M 358.800781 157.152344 L 326.226562 39.074219 L 354.726562 39.074219 L 366.222656 92.484375 C 369.097656 105.660156 371.253906 116.914062 372.691406 126.257812 L 373.410156 126.257812 C 374.367188 119.550781 376.523438 108.53125 379.875 92.726562 L 391.851562 39.074219 L 420.355469 39.074219 L 387.300781 157.152344 L 387.300781 213.679688 L 359.039062 213.679688 L 359.039062 157.152344 Z M 358.800781 157.152344 " fill-opacity="1" fill-rule="nonzero"/><path fill="#ffffff" d="M 585.136719 86.257812 L 585.136719 213.917969 L 562.625 213.917969 L 560.230469 198.347656 L 559.511719 198.347656 C 553.523438 210.085938 544.179688 216.074219 531.964844 216.074219 C 523.582031 216.074219 517.355469 213.199219 513.285156 207.691406 C 509.210938 202.183594 507.296875 193.558594 507.296875 181.582031 L 507.296875 86.257812 L 536.039062 86.257812 L 536.039062 179.90625 C 536.039062 185.65625 536.757812 189.726562 537.953125 192.121094 C 539.152344 194.515625 541.308594 195.714844 544.179688 195.714844 C 546.578125 195.714844 548.972656 194.996094 551.367188 193.320312 C 553.761719 191.882812 555.4375 189.964844 556.398438 187.570312 L 556.398438 86.257812 Z M 585.136719 86.257812 " fill-opacity="1" fill-rule="nonzero"/><path fill="#ffffff" d="M 732.4375 86.257812 L 732.4375 213.917969 L 709.925781 213.917969 L 707.527344 198.347656 L 706.808594 198.347656 C 700.824219 210.085938 691.480469 216.074219 679.265625 216.074219 C 670.882812 216.074219 664.65625 213.199219 660.585938 207.691406 C 656.511719 202.183594 654.597656 193.558594 654.597656 181.582031 L 654.597656 86.257812 L 683.339844 86.257812 L 683.339844 179.90625 C 683.339844 185.65625 684.058594 189.726562 685.253906 192.121094 C 686.453125 194.515625 688.609375 195.714844 691.480469 195.714844 C 693.875 195.714844 696.273438 194.996094 698.667969 193.320312 C 701.0625 191.882812 702.738281 189.964844 703.695312 187.570312 L 703.695312 86.257812 Z M 732.4375 86.257812 " fill-opacity="1" fill-rule="nonzero"/><path fill="#ffffff" d="M 663.21875 62.304688 L 634.71875 62.304688 L 634.71875 213.679688 L 606.695312 213.679688 L 606.695312 62.304688 L 578.191406 62.304688 L 578.191406 39.074219 L 663.21875 39.074219 Z M 663.21875 62.304688 " fill-opacity="1" fill-rule="nonzero"/><path fill="#ffffff" d="M 827.523438 106.617188 C 825.847656 98.472656 822.972656 92.726562 819.140625 89.132812 C 815.308594 85.539062 809.800781 83.625 803.09375 83.625 C 797.824219 83.625 792.796875 85.058594 788.246094 88.175781 C 783.695312 91.046875 780.101562 95.121094 777.707031 99.910156 L 777.464844 99.910156 L 777.464844 32.605469 L 749.683594 32.605469 L 749.683594 213.679688 L 773.394531 213.679688 L 776.269531 201.703125 L 776.988281 201.703125 C 779.144531 206.015625 782.496094 209.367188 787.046875 212 C 791.597656 214.398438 796.386719 215.832031 801.898438 215.832031 C 811.714844 215.832031 818.664062 211.285156 823.214844 202.421875 C 827.765625 193.558594 830.160156 179.429688 830.160156 160.507812 L 830.160156 140.386719 C 829.917969 125.777344 829.199219 114.519531 827.523438 106.617188 Z M 801.179688 158.589844 C 801.179688 167.929688 800.699219 175.117188 799.980469 180.386719 C 799.261719 185.65625 797.824219 189.488281 796.148438 191.644531 C 794.230469 193.800781 791.835938 194.996094 788.964844 194.996094 C 786.566406 194.996094 784.414062 194.515625 782.496094 193.320312 C 780.582031 192.121094 778.902344 190.445312 777.707031 188.289062 L 777.707031 115.957031 C 778.664062 112.605469 780.339844 109.730469 782.734375 107.335938 C 785.132812 105.179688 787.765625 103.980469 790.398438 103.980469 C 793.273438 103.980469 795.667969 105.179688 797.105469 107.335938 C 798.78125 109.730469 799.742188 113.5625 800.460938 118.832031 C 801.179688 124.339844 801.417969 132.003906 801.417969 141.824219 L 801.417969 158.589844 Z M 801.179688 158.589844 " fill-opacity="1" fill-rule="nonzero"/></svg>